<svg xmlns="http://www.w3.org/2000/svg" viewBox="0 0 439.01 438.93"><g id="Layer_2" data-name="Layer 2"><g id="Layer_1-2" data-name="Layer 1"><path d="M219.36,0c122,0,220,98.09,219.65,220.57-.36,122.19-100.38,219.37-221.17,218.36C96.64,437.92-.72,339.28,0,218.32.74,95.55,100.56-.17,219.36,0Z" style="fill:#010101"/><path d="M24.77,316a3.61,3.61,0,0,1-1.23-2.4c.59-1.25,1.82-1.6,2.94-2.14C35.89,307,45.1,302,54.58,297.62c2.05-.95,2.56-2.1,1.61-4.08-4.45-9.35-7.47-19.22-10.23-29.17-.43-1.55-1.3-2.4-3-2-11.53,3-23.43,4.56-34.68,8.68a9.2,9.2,0,0,1-1.19-4.62c9.59-2.71,19.4-4.53,29.07-6.91,1.21-.3,2.44-.51,3.65-.83,3.9-1,4.27-1.42,3.52-5.48a222.18,222.18,0,0,1-3-27.82c-.17-3-1.77-3.39-4.15-3.39q-13.46,0-26.92,0a24.44,24.44,0,0,1-3.73-.13c-1.23-.18-2.59-.33-2.66-2s1.27-1.93,2.51-2.14a23.23,23.23,0,0,1,3.73-.14c8.72,0,17.45,0,26.17,0,4.72,0,4.76-.22,5-4.74a221.72,221.72,0,0,1,3-26.33c.79-4.35.68-4.58-3.61-5.62-8.72-2.13-17.48-4.06-26.22-6.09-2.17-.51-4.43-.71-6.47-1.73a4,4,0,0,1,.84-3.23c3.21-.68,6.13.71,9.11,1.38,8,1.8,16,3.62,24,5.54,4.05,1,4.37.74,5.41-3.3a188.74,188.74,0,0,1,8-23.7c1.63-4.05,1.5-4.48-2.45-6.22-8.9-3.91-17.55-8.35-26.47-12.2a7.33,7.33,0,0,1-3.61-2.54,4.09,4.09,0,0,1,1.32-2.93c10.15,4.47,20.14,9.3,30.17,14,4.36,2.05,4.3,2.13,6.43-2a186.44,186.44,0,0,1,14.9-24.16c1.88-2.6,1.44-3.91-1-5.71-7.77-5.84-15.46-11.79-23-17.94-1.21-1-2.84-1.72-2.7-3.71a1.37,1.37,0,0,1,.82-1.64c3.68.89,6.11,3.71,8.9,5.9,6.26,4.92,12.66,9.67,18.81,14.73,1.92,1.58,3.29,1.54,4.94-.51a138.75,138.75,0,0,1,20.51-21.1c2.25-1.83,2.19-3.32.39-5.57-7.08-8.83-14.33-17.52-21.34-26.41l2.81-2.26c2.48,1.61,3.88,4.2,5.65,6.41,5.28,6.62,10.83,13,15.94,19.77,1.82,2.4,3.31,2.38,5.52.63A161.84,161.84,0,0,1,135.7,60.21c2.55-1.35,2.65-2.83,1.44-5.1-4.57-8.57-8.41-17.5-12.72-26.2-.66-1.33-1.54-2.59-1.42-4.19a3.39,3.39,0,0,1,2.35-1.26,9.33,9.33,0,0,1,2.49,3.67c4.29,8.73,8.89,17.31,12.92,26.16,1,2.25,2.32,2.68,4.4,1.82A241.88,241.88,0,0,1,174,44.81c1.87-.51,2.64-1.64,2.18-3.63-2.26-9.84-4.47-19.69-6.82-29.51-.3-1.23-1.15-2.22-1.47-3.43A10.1,10.1,0,0,1,173.2,7c1.46,11.15,4.73,21.91,7.1,32.87.45,2.1,1.65,2.86,3.8,2.45,10.17-1.94,20.37-3.74,30.79-3.61,2.07,0,2.84-1.18,2.84-3.1,0-9.61,0-19.21,0-28.82,0-2.1-.77-3.29-3-3.32-1.22,0-2.54,0-3.37-1.21a40.3,40.3,0,0,1,15,0c-4,1.14-4.37,4.1-4.27,7.73.23,8.23.17,16.46,0,24.69-.06,3,1,4.25,4.09,4.16,9.26-.27,18.39,1.09,27.51,2.5,4.11.63,4.22.58,5.17-3.66,1.89-8.4,3.8-16.78,5.84-25.14.47-1.93.71-5,3.54-4.27s1,3.42.55,5.13C266.84,21.61,265,29.9,263,38.14c-1.13,4.69-1.07,4.68,3.77,6a180.77,180.77,0,0,1,23.73,8c2.77,1.21,4.21.82,5.52-2q5.46-11.69,10.9-23.39c.83-1.78,1.45-3.75,3.25-4.92a4.1,4.1,0,0,1,3,1.32c-4.23,9.57-9,18.91-13.17,28.48-1.69,3.84-1.73,4.08,2.15,5.93a171.42,171.42,0,0,1,24.4,14.5c3.53,2.46,3.69,2.46,6.25-.86,5.47-7.11,11-14.17,16.52-21.24.82-1.05,1.41-2.41,2.94-2.72.77.44,1.75.65,1.94,1.74-.3,2.39-2,3.94-3.43,5.66-5.09,6.3-9.95,12.78-15,19.13-2.43,3.08-2.32,3.46.77,6a166.2,166.2,0,0,1,21.07,20.62c1.62,1.89,2.91,2.36,4.93.61,6.8-5.85,14-11.23,20.85-17,1.23-1,2.39-2.22,4.15-2.32a4.14,4.14,0,0,1,2,2.18c-6.87,6.33-14.35,11.92-21.6,17.79-5.39,4.37-5.41,4.3-1.22,9.75a158.89,158.89,0,0,1,14.37,22.71c1.51,2.87,2.89,2.91,5.54,1.65,8.11-3.85,16.18-7.76,24.19-11.79a6.48,6.48,0,0,1,3.52-1.08,3.35,3.35,0,0,1,1.23,2.45,5.46,5.46,0,0,1-3.18,2.45c-8.15,3.45-15.84,7.87-23.85,11.6-2.7,1.25-3.41,2.64-2.09,5.48a155.21,155.21,0,0,1,10.15,28.45c.59,2.38,1.91,2.85,4.15,2.3,10-2.47,20.16-4.58,30.19-7.08,1,.91.59,2,.45,3.11-1.3,1.58-3.21,1.83-5,2.26-7.88,1.89-15.81,3.54-23.65,5.57-3.92,1-4.13,1.25-3.38,5.09a158.53,158.53,0,0,1,3.24,29.29c0,2.68,1,3.8,3.76,3.77q12.7-.1,25.42,0a8,8,0,0,0,5.09-1.93,12.52,12.52,0,0,1,0,8.22A8,8,0,0,0,431.8,222q-12.71.11-25.42,0c-2.72,0-3.74,1.06-3.79,3.75a172.66,172.66,0,0,1-3.25,29.29c-.72,3.82-.44,4.18,3.39,5.05q12.21,2.79,24.4,5.64c1.8.41,3.76.71,4.26,3a1.29,1.29,0,0,1-.51,1.59c-4,.31-7.6-1.24-11.35-2-6.23-1.3-12.43-2.75-18.6-4.28-2.7-.68-3.86.17-4.56,2.73a174.44,174.44,0,0,1-8.75,25.05c-1.19,2.7-.18,3.82,2.15,4.82,8.37,3.58,16.46,7.78,24.81,11.41a5.41,5.41,0,0,1,2.65,2,4.13,4.13,0,0,1-1.35,3c-4.89-1.83-9.54-4.22-14.24-6.47s-9.39-4-13.88-6.49c-2-1.11-3.42-.74-4.55,1.41a169.71,169.71,0,0,1-16.45,26.23c-1.87,2.39-.67,3.81,1.2,5.24,6.94,5.28,13.8,10.66,20.66,16a11.35,11.35,0,0,1,3.19,3.1l-2.18,2.85c-7.84-6.34-15.84-12.48-23.79-18.68-3.52-2.75-3.59-2.64-6.51.82a173,173,0,0,1-20.27,20.33c-3.06,2.61-3.12,2.57-.56,5.86,5.52,7.07,11.4,13.84,16.86,21,.78,1,2.23,1.85,1.29,3.52a1.84,1.84,0,0,1-1.46,1.64c-2-1-3.09-2.86-4.39-4.5-5.18-6.54-10.65-12.86-15.72-19.49-1.68-2.21-3.1-2.32-5.25-.69a149.79,149.79,0,0,1-25.36,15.77c-2.5,1.21-2.76,2.53-1.67,5,3.69,8.33,8,16.36,11.95,24.54.64,1.34,1.53,2.59,1.42,4.19a3.57,3.57,0,0,1-2.45,1.23c-3.61-3.48-5.06-8.22-7.07-12.58-2.49-5.45-5.36-10.71-7.83-16.16-1-2.11-2.19-2.35-4.14-1.44a164.37,164.37,0,0,1-29.29,10.18c-2.15.54-2.78,1.71-2.27,3.84q3.36,14,6.47,28.07c.28,1.26,1.15,2.2,1.64,3.34-1.18,1.13-2.57.65-3.92.52-1.56-.82-1.58-2.43-1.94-3.85-2.15-8.57-3.94-17.23-6.06-25.82-1-4-1.37-4.29-5.36-3.58a180.49,180.49,0,0,1-27.82,3c-3.19.08-4,1.47-4,4.37q.17,12.51,0,25c0,3.08.23,5.52,4.16,5.42a1.84,1.84,0,0,1,1.52,1,41.71,41.71,0,0,1-15.71-.05c.16-.2.3-.44.52-.53,5.12-2,5.12-2,5.12-7.7,0-7.72-.08-15.44,0-23.16.05-2.94-.91-4.23-4-4.48-10.17-.83-20.35-1.77-30.35-4-2.77-.61-3.49,1-4,3.19-1.83,8.27-3.81,16.5-5.7,24.76-.51,2.24-.54,4.77-2.64,6.4-.9.18-1.8.38-2.52-.44-.18-4.57,1.63-8.76,2.51-13.12,1.28-6.34,2.82-12.62,4.35-18.9.7-2.86-.26-4-2.95-4.76-7.86-2.36-15.71-4.77-23.19-8.23-3.35-1.54-4.64-1.09-6.39,2.66-4,8.44-7.85,16.91-11.87,25.32-.59,1.23-.94,2.59-2.18,3.39a4.09,4.09,0,0,1-2.94-1.34c3.15-8.13,7.21-15.84,10.82-23.76,1-2.27,2.12-4.5,3.07-6.81s.25-3.73-1.89-4.87a167,167,0,0,1-24.92-15.77c-2.52-2-3.88-.91-5.46,1.18-5.89,7.73-11.8,15.44-18,23-.84,1-1.47,2.4-3.16,2.27a2.36,2.36,0,0,1-2.44-1.41c6.61-8.56,13.3-17.06,20-25.56,3-3.87,2.92-4.13-.85-7.42a183.79,183.79,0,0,1-18.69-18.75c-3.07-3.59-3.54-3.75-7.14-.86q-11.5,9.22-22.93,18.54c-.92.74-1.76,1.93-3.23,1a2,2,0,0,1-1.6-1.45c1-2,2.85-3.08,4.49-4.38,7.22-5.72,14.2-11.76,21.54-17.33,2.46-1.87,2.57-3.34.67-5.75A145.5,145.5,0,0,1,61,303.25c-1.33-2.63-2.59-3.1-5.19-1.73C47,306.18,37.79,310,29,314.6,27.64,315.29,26.36,316.13,24.77,316Z" style="fill:#1d3147"/><path d="M7,173.08c1.13-1.22,2.35-.33,3.48-.07,10.67,2.43,21.3,5,32,7.3,2.5.54,3,1.48,2.5,3.76a159.45,159.45,0,0,0-3.52,31.86c0,2.38-.86,2.84-3,2.82-10.72-.1-21.44-.08-32.16,0-1.11,0-3.22-1-3.17,1.2,0,1.77,2,1,3.06,1,10.71.07,21.43.1,32.15,0,2.35,0,3.14.52,3.18,3A154.19,154.19,0,0,0,45,255.05c.57,2.54.18,3.68-2.74,4.29-10.47,2.19-20.84,4.8-31.28,7.14-1.2.27-2.57,1.31-3.83,0a255.55,255.55,0,0,1-4.83-40.73A240.48,240.48,0,0,1,7,173.08Z" style="fill:#c4dfb3"/><path d="M310.21,21.86Q303,37.6,295.78,53.35c-.7,1.54-1.51,1.48-2.92.86a161.54,161.54,0,0,0-30.07-9.86c-2-.43-1.93-1.23-1.54-2.86,2.28-9.55,4.44-19.14,6.63-28.71a8.49,8.49,0,0,0,.37-1.83c0-.85,1.2-2.1-.36-2.49s-1.55,1.27-1.79,2.22c-.85,3.37-1.57,6.78-2.35,10.17-1.5,6.55-3.11,13.07-4.46,19.65-.47,2.25-1.38,2.75-3.54,2.31a152.37,152.37,0,0,0-31.15-3.16c-3.06,0-3.63-1.17-3.58-3.93.16-9.22.06-18.44.06-27.67,0-5.51,0-5.51,5.24-5.83A221.4,221.4,0,0,1,310.21,21.86Z" style="fill:#c4dfb3"/><path d="M48.08,86.37c3.06,3.65,7.19,6,10.84,9,5.71,4.62,11.53,9.11,17.38,13.56,1.48,1.13,1.7,1.86.5,3.46a172.51,172.51,0,0,0-17.25,28.34c-.67,1.37-1,2.63-3.17,1.6-10.54-5.06-21.16-9.95-31.76-14.88-.72-.34-1.32-.67-1.39-1.55A226.17,226.17,0,0,1,44,91.13C45.25,89.45,46.25,87.55,48.08,86.37Z" style="fill:#c4dfb3"/><path d="M123,24.72C128.35,35.5,133.68,46.28,139.08,57c.75,1.48.38,2.21-1,2.92a183.42,183.42,0,0,0-28.72,18.69c-1,.82-1.77,1.06-2.75-.17-7.47-9.32-15-18.59-22.49-27.89-.2-.25-.15-.71-.22-1.07C96.19,40.05,109,31.49,123,24.72Z" style="fill:#c4dfb3"/><path d="M8.3,271.09c-.14-1.66.94-2,2.28-2.28,10.9-2.46,21.79-4.92,32.66-7.52,2.11-.5,3-.29,3.55,2.08a164.86,164.86,0,0,0,10.93,31.21c.7,1.47.81,2.29-.94,3.12-11.12,5.24-22.17,10.6-33.24,15.92A224.38,224.38,0,0,1,8.3,271.09Z" style="fill:#c4dfb3"/><path d="M81.11,51.77c1.27-.27,1.72.76,2.31,1.5,7,8.6,13.88,17.27,21,25.8,1.49,1.78,1.35,2.65-.37,4.11a159.46,159.46,0,0,0-22.81,23.58c-1.35,1.73-2.22,1.59-3.8.33-9.45-7.51-19-14.92-28.49-22.36C58.42,72.56,69.41,61.82,81.11,51.77Z" style="fill:#c4dfb3"/><path d="M211.35,2.21c7.49.49,7.49.49,7.49,8.09q0,13.26,0,26.53c0,1.55.2,2.92-2.18,2.89-11.51-.13-22.83,1.61-34,4-1.86.39-2.55.24-3-1.8q-3.54-16.21-7.46-32.34c-.33-1.4-.09-2.05,1-2.62A270.53,270.53,0,0,1,211.35,2.21Z" style="fill:#c4dfb3"/><path d="M167.93,8.24c1.66-.15,2,.92,2.29,2.26q3.59,15.81,7.32,31.59c.45,1.92,0,2.89-2,3.41a185,185,0,0,0-28.8,10.13c-4.87,2.12-4.94,2-7.16-2.64q-7.11-14.76-14.2-29.53A233.74,233.74,0,0,1,167.93,8.24Z" style="fill:#c4dfb3"/><path d="M51.21,356.48c8-5.45,15.11-12.09,22.8-18,2.35-1.8,4.45-5.23,7.07-5s4.06,4,6.07,6.15A206.88,206.88,0,0,0,106.22,358c1.15,1,2.38,1.6.87,3.49-7.14,8.94-14.14,18-21.17,27a2,2,0,0,1-1.86,1,227.25,227.25,0,0,1-30.21-29.45C52.9,358.93,52.09,357.67,51.21,356.48Z" style="fill:#c4dfb3"/><path d="M86.5,390.92c7.11-9,14.3-17.87,21.29-26.92,1.72-2.23,2.79-2.62,5.18-.72a142.18,142.18,0,0,0,25.52,16.15c3.15,1.55,3.83,3.13,2.26,6.34-4.37,8.94-8.44,18-12.69,27-.5,1.07-.67,2.47-2.07,3a224.14,224.14,0,0,1-35.32-21.21C89.2,393.43,87.49,392.57,86.5,390.92Z" style="fill:#c4dfb3"/><path d="M171.17,431.14c2.64-11.24,5.36-22.47,7.84-33.74.49-2.23,1.32-2.49,3.26-2a176.63,176.63,0,0,0,34.35,4.32c1.88.07,2.25.78,2.24,2.45q-.08,16,0,32.11c0,1.77-.48,2.46-2.29,2.32-1.48-.11-3,0-4.47.07A201.91,201.91,0,0,1,171.17,431.14Z" style="fill:#c4dfb3"/><path d="M24.77,316c10.86-6.07,22.28-11,33.36-16.61,1.2-.61,1.72-.29,2.28.82a174.54,174.54,0,0,0,18.27,29.06c.78,1,1.15,1.78-.13,2.77-9.74,7.55-18.9,15.82-28.95,23A220.41,220.41,0,0,1,24.77,316Z" style="fill:#c4dfb3"/><path d="M21.91,128.81c11.26,5.16,22.52,10.35,33.81,15.48,1.58.71,1.5,1.54.89,2.92a167.37,167.37,0,0,0-10,29.57c-.36,1.52-.88,2.05-2.53,1.65C32,175.52,19.94,172.7,7.86,169.85a207.86,207.86,0,0,1,7.71-25.53C17.49,139.08,19.78,134,21.91,128.81Z" style="fill:#c4dfb3"/><path d="M227.82,436.69c-6.74-.42-6.74-.42-6.74-7.28,0-8.71.15-17.42-.08-26.12-.08-3.07,1-3.61,3.77-3.62a147.6,147.6,0,0,0,31.08-3.28c2.93-.64,3.61.4,4.16,2.84,2.36,10.67,4.85,21.3,7.3,31.95-6.44,2.31-13.23,2.86-19.91,3.76C240.91,435.82,234.35,436.13,227.82,436.69Z" style="fill:#c4dfb3"/><path d="M316.17,414.18C311.41,406.45,308,398,304,389.94c-1.31-2.61-4.18-5.52-3.14-7.94.9-2.07,4.64-2.91,7.14-4.28a185.17,185.17,0,0,0,22.55-14.6c.93-.7,1.88-2.49,3.35-.62,7.05,9,14.76,17.49,21.33,26.87A230.37,230.37,0,0,1,316.17,414.18Z" style="fill:#c4dfb3"/><path d="M387.57,81.69c-8.57,7-17.19,13.93-25.68,21-1.74,1.45-2.52,1-3.77-.48A160.58,160.58,0,0,0,334,78.94c-1.78-1.39-1.59-2.32-.35-3.88,6.9-8.65,13.72-17.36,20.57-26.05A199.92,199.92,0,0,1,387.57,81.69Z" style="fill:#c4dfb3"/><path d="M271.23,430.66c-1.6.15-2-.74-2.31-2.17q-3.48-15.45-7.19-30.86c-.45-1.85.25-2.45,1.83-2.82a169.67,169.67,0,0,0,32.37-11.15c1.68-.78,2.36-.33,3.08,1.19,4.86,10.21,9.8,20.38,14.71,30.56A235.51,235.51,0,0,1,271.23,430.66Z" style="fill:#c4dfb3"/><path d="M352.27,47.27Q341.82,60.85,331.4,74.44c-.86,1.12-1.49,1.25-2.67.38a173.32,173.32,0,0,0-30-18c-1.21-.56-1.64-1.24-1-2.61C302.49,44.13,307.19,34,312,23.89c.16-.35.8-.48,1.22-.71A231.42,231.42,0,0,1,352.27,47.27Z" style="fill:#c4dfb3"/><path d="M436.87,215.72c.22,2.34-.74,3.08-3.16,3.05-9.71-.15-19.42-.13-29.12,0-2.21,0-3.06-.5-3-2.86a149.73,149.73,0,0,0-3.73-33.28c-.48-2.16-.22-3.21,2.38-3.76,10.44-2.22,20.81-4.76,31.21-7.19C435.17,186.1,436.43,200.86,436.87,215.72Z" style="fill:#c4dfb3"/><path d="M431.39,268.76c-1-1.59-2.71-1.58-4.22-1.93-8.95-2.12-17.9-4.27-26.91-6.14-2.64-.54-3-1.47-2.48-3.94a148,148,0,0,0,3.74-32.56c0-2.65.83-3.34,3.4-3.3q14.38.23,28.78,0c2.44,0,3.38.72,3.19,3.05A245.81,245.81,0,0,1,431.39,268.76Z" style="fill:#c4dfb3"/><path d="M431,168.55c-.19,1.31-1.24,1.32-2.22,1.54-9.82,2.24-19.63,4.47-29.43,6.8-1.71.4-2.61.49-3.15-1.65a164,164,0,0,0-11.74-32.53c-.65-1.33-.67-2.1.93-2.85,10.11-4.77,20.16-9.66,30.24-14.51A229.7,229.7,0,0,1,431,168.55Z" style="fill:#c4dfb3"/><path d="M414.35,122.9c-9.79,5.6-20.18,10-30.22,15.15-1.51.77-1.93,0-2.49-1.11a178.37,178.37,0,0,0-19-29.34c-.78-1-1.26-1.73,0-2.76,8.63-6.92,17.21-13.9,25.83-20.83.24-.2.72-.1,1.08-.14A233.09,233.09,0,0,1,414.35,122.9Z" style="fill:#c4dfb3"/><path d="M356.65,387.73c-5-7.73-11.39-14.41-17-21.65-4.84-6.2-4.91-6.09,1-11.21a163.15,163.15,0,0,0,19.49-20.11c1.52-1.87,2.45-2.4,4.61-.64,7.53,6.14,15.28,12,22.91,18,.9.7,2.37,1.12,2,2.78A228,228,0,0,1,359.06,386C358.31,386.65,357.46,387.16,356.65,387.73Z" style="fill:#c4dfb3"/><path d="M391.81,352.07c-5.15-2.81-9.32-6.94-14-10.41-4.09-3.05-8-6.36-12.11-9.35-1.94-1.4-1.79-2.37-.43-4.12a164.23,164.23,0,0,0,17.5-28.13c.66-1.34,1.09-2.81,3.21-1.81,9.66,4.57,19.35,9.06,29,13.61.38.19.58.76.86,1.15A231.45,231.45,0,0,1,391.81,352.07Z" style="fill:#c4dfb3"/><path d="M128.93,417.06c2.71-7.86,6.87-15.08,10.15-22.69,1.18-2.73,2.46-5.42,3.79-8.09,1.2-2.42,3-3.26,5.66-2a162,162,0,0,0,26.29,9.31c1.92.51,2.64,1.16,2.13,3.27-2.62,11-5.11,22-7.66,33-.08.32-.42.59-.64.88A219.48,219.48,0,0,1,128.93,417.06Z" style="fill:#c4dfb3"/><path d="M417.23,310.05c-10.52-4.1-20.49-9.4-30.78-14-1.35-.6-1.11-1.35-.66-2.34a190.58,190.58,0,0,0,10.47-29.81c.29-1.11.51-1.88,1.9-1.52,10.86,2.84,22,4.59,32.71,8A228.39,228.39,0,0,1,417.23,310.05Z" style="fill:#c4dfb3"/><path d="M325.71,224.65c5.86,0,11.73,0,17.59,0,16.2-.18,32.4-.27,48.59-.72,4-.12,4.73,1.22,4.58,4.85-1,22.17-6.43,43.21-15.31,63.47-1,2.31-2.82,2.55-4.83,2.64-12.94.58-25.88,1.06-38.82,1.7-17.15.87-34.31,1.77-51.45,2.86-4.22.26-6.93-.45-9.21-4.67-5.42-10.08-11.61-19.76-17.5-29.59-.92-1.54-1.49-2.8-.31-4.72,6.64-10.84,13.13-21.76,19.56-32.72a4.35,4.35,0,0,1,4.11-2.43C297,224.57,311.38,224.89,325.71,224.65Z" style="fill:#7f9b24"/><path d="M388,218.78c-27.16,1-54.35.33-81.52.86-7.84.16-15.7.15-23.54.53a4.66,4.66,0,0,1-4.76-2.7q-9.36-16-18.91-31.8a3.93,3.93,0,0,1-.08-4.72c6.28-10.32,12.42-20.73,18.59-31.12,1-1.64,1.88-2.37,4.26-2.47,24.3-1,48.62.1,72.91-1,7.84-.37,15.71-.07,23.57-.21,2.12,0,2.78,1.24,3.45,2.77a182,182,0,0,1,12.89,44.28c1.11,7,1.22,14.11,2.08,21.15.39,3.11-.27,5.1-4.08,4.49A31.49,31.49,0,0,0,388,218.78Z" style="fill:#7e9b24"/><path d="M102.07,222.52c17.09,0,34.18.06,51.27-.06a5.35,5.35,0,0,1,5.34,3c6.66,11.4,13.46,22.73,20.29,34,1.28,2.11,1.5,3.73.09,6-6,9.64-11.7,19.42-17.42,29.21a4.65,4.65,0,0,1-4.77,2.64c-23-.89-46.07-1.65-69.11-2.52-7.46-.28-14.92-.83-22.38-1.11a3.87,3.87,0,0,1-3.9-2.69,173.51,173.51,0,0,1-14.24-53.87c-.35-3.73-.44-7.45-.74-11.17-.23-2.82.73-3.61,3.54-3.59C67.38,222.58,84.72,222.52,102.07,222.52Z" style="fill:#7e9b24"/><path d="M103.48,217.28c-17.59,0-35.19-.11-52.78.09-3.6,0-4.31-1.14-4.2-4.45A176.79,176.79,0,0,1,60,151.67c1-2.43,2.31-3.26,5-3.34,21.55-.67,43.09-1.5,64.63-2.36,8.33-.33,16.66-.81,25-1.33a4.45,4.45,0,0,1,4.72,2.6c6.53,11.2,13.21,22.3,19.9,33.4,1.05,1.73,1.36,3.05.14,5-6,9.66-11.72,19.42-17.4,29.23-1.22,2.13-2.79,2.43-4.93,2.42C139.17,217.26,121.33,217.28,103.48,217.28Z" style="fill:#7e9b24"/><path d="M219.14,180.53c-10.1,0-20.21-.07-30.32.05-2.49,0-4.07-.59-5.4-2.89-6.18-10.68-12.55-21.25-18.92-31.82a3.67,3.67,0,0,1-.07-4.4q10-16.47,19.7-33.09a3.63,3.63,0,0,1,3.6-2q31.46.08,62.89,0a3.94,3.94,0,0,1,3.9,2.17q9.78,16.59,19.74,33.07a3.57,3.57,0,0,1-.17,4.13c-6.52,10.91-13,21.82-19.47,32.79-1.09,1.85-2.57,2-4.41,2C239.86,180.51,229.5,180.53,219.14,180.53Z" style="fill:#7e9b24"/><path d="M219.15,339.22c-10.11,0-20.22-.07-30.33,0-2.49,0-4.06-.58-5.4-2.89-6.18-10.67-12.55-21.24-18.92-31.81a3.69,3.69,0,0,1-.07-4.41q10-16.47,19.7-33.08a3.61,3.61,0,0,1,3.6-2q31.44.06,62.89,0a4,4,0,0,1,3.9,2.17q9.78,16.59,19.73,33.07a3.56,3.56,0,0,1-.16,4.13c-6.52,10.91-13,21.82-19.47,32.79-1.08,1.85-2.57,2-4.4,2C239.86,339.2,229.5,339.22,219.15,339.22Z" style="fill:#7e9b24"/><path d="M218.94,259.87c-10,0-20-.13-29.95.09-3,.06-4.47-1-5.87-3.42-6.08-10.45-12.29-20.83-18.54-31.17a3.94,3.94,0,0,1,0-4.73c6.6-10.87,13.07-21.81,19.51-32.76a3.64,3.64,0,0,1,3.52-2.15q31.62.09,63.26,0a3.66,3.66,0,0,1,3.6,2q9.79,16.57,19.74,33.06a3.58,3.58,0,0,1,0,4.14q-9.9,16.51-19.67,33.1c-1,1.72-2.44,1.83-4.13,1.82Q234.66,259.85,218.94,259.87Z" style="fill:#7e9b24"/><path d="M333.32,141.59c-16.21-.36-32.41.52-48.62.75-2.86,0-4.55-.82-6-3.3Q269,122.39,259,106c-1.34-2.2-1.29-3.57.61-5.44q18.25-18,36.26-36.25c1.85-1.89,3.2-1.94,5.44-.77,32.83,17.1,57.83,42,75.42,74.54,1.39,2.57.44,2.87-1.9,2.92C361,141.26,347.17,141.76,333.32,141.59Z" style="fill:#7e9b24"/><path d="M217.33,101.18c-10.47,0-21,0-31.42,0a4.89,4.89,0,0,1-4.26-1.7c-10.11-12.32-20.19-24.66-30.48-36.82-2.25-2.65-1.1-3.18,1.27-4.17a180.32,180.32,0,0,1,58.14-13.68c27.61-1.79,53.95,3,79.42,13.48,2.93,1.21,3,1.94.8,4.09Q272.31,80.66,254,99.16a6.68,6.68,0,0,1-5.29,2.06C238.27,101.14,227.8,101.18,217.33,101.18Z" style="fill:#7e9b24"/><path d="M157.5,142.87c.12-3.06-.94-3.52-2.73-3.43-11.07.53-22.15,1-33.22,1.45Q96,142,70.41,143.06c-2,.09-3.94,0-6.3,0A113.07,113.07,0,0,1,75.34,123a176.11,176.11,0,0,1,64.11-58.17c4.74-2.54,4.74-2.54,8.22,1.68q14.73,17.87,29.46,35.76c.86,1,1.61,2.14,3.65,1.51Z" style="fill:#7e9b24"/><path d="M369.07,300.16c1.62,0,3.49.08,5.36,0,2.37-.14,2.5.75,1.5,2.6a175.45,175.45,0,0,1-19.22,28.44,179.23,179.23,0,0,1-52.93,43.27c-5.75,3.1-5.65,3.22-10.45-1.38-10.64-10.16-21.26-20.33-32-30.39-1.88-1.76-2.22-3.06-.81-5.35q9.2-15,18-30.17c1.11-1.91,2.39-2.4,4.46-2.5q30.42-1.4,60.83-3C352.16,301.24,360.48,300.68,369.07,300.16Z" style="fill:#7e9b24"/><path d="M149.86,379.31c8.57-9.34,17.31-18.08,25.09-27.61,4.76-5.83,9.9-7.6,17.23-7.42,20.07.52,40.17.19,60.25.16,1.92,0,3.53.2,5.07,1.69q16.14,15.6,32.5,31c2.48,2.32,2.09,3.06-.9,4.27a178.77,178.77,0,0,1-52.75,12.73,174.39,174.39,0,0,1-82.16-12.76C152.83,380.77,151.53,380.09,149.86,379.31Z" style="fill:#7e9b24"/><path d="M69.06,299.14c19.15.83,38.42,1.7,57.69,2.49,9.08.38,18.17.7,27.25.86a5.12,5.12,0,0,1,5,2.94c6.07,10.44,12.29,20.8,18.54,31.13,1.31,2.16,2,3.24-.53,5.65-6.6,6.22-12.46,13.23-18.6,19.93-3.87,4.22-7.81,8.39-11.53,12.73-1.66,1.93-3.09,1.82-5.14.76a174.73,174.73,0,0,1-67.55-61.3c-2.51-3.87-4.64-8-7.09-11.86C65.54,300,66.4,299.17,69.06,299.14Z" style="fill:#7e9b24"/><path d="M327,248.69c7.07-.05,7.1,0,4.19,6.65-1.59,3.65-3.16,7.31-4.77,11-.39.88-.75,2.16-2,1.68-1.58-.6-.38-1.7-.05-2.45,1.61-3.78,3.19-7.58,5.05-11.24,1.5-2.93.6-3.66-2.35-3.37a37.54,37.54,0,0,1-4.86,0c-.67,0-1.28-.37-1.29-1.08a1.15,1.15,0,0,1,1.26-1.11C323.71,248.66,325.33,248.69,327,248.69Z" style="fill:#020301"/><path d="M330.76,181.63c4.26,3.21,5,5.14,3.29,7.73s-6.85,3.39-9.84,1.64-2.86-5.14.13-7.7c1-.89,1.91-1.22.46-2.7-2.59-2.64-2.6-5.29-.49-7s6.81-1.76,8.65.13,1.49,4.34-1.33,7C331.37,181,331.13,181.23,330.76,181.63Z" style="fill:#020301"/><path d="M100.66,249.07c3-3.69,7.06-4.44,9.42-2.28s2.23,4.88-.14,7.09c-1.32,1.22-.41,1.46.45,2a4.36,4.36,0,0,1,1.89,5.52,5.47,5.47,0,0,1-5.48,3.72c-2.35,0-4.88.33-6.38-3,3.64.82,7.93,3.41,9.25-1.38,1.45-5.27-4-4-7.48-5.3,3.13-1.66,8.3-.94,6.68-5.89C107.57,245.59,104.22,247.9,100.66,249.07Z" style="fill:#020201"/><path d="M105.25,171.45c1-2.94,3.5-3.22,6.06-2.84a4.56,4.56,0,0,1,4.22,4.48c.22,3-1.27,5.23-3.11,7.33-1.38,1.57-2.78,3.12-4.76,5.34,2.57,0,4.48,0,6.38,0,.9,0,2.25-.36,2.16,1.24-.08,1.27-1.24,1-2,1-2.36.05-4.73,0-7.09,0-2.62,0-2.74-1.24-1.46-3a42.59,42.59,0,0,1,3-3.32,25.85,25.85,0,0,0,2.42-2.83c1.41-2.18,3.24-4.51,1.19-7.12S107.73,170.85,105.25,171.45Z" style="fill:#020301"/><path d="M233.9,148.28a23.92,23.92,0,0,1-10.44.45c.14-1.47,1.06-1.38,1.7-1.32,2.22.21,2.77-.86,2.65-2.87-.14-2.35,0-4.71,0-7.07,0-4.82,0-4.82-4.54-3.61,1.1-2.36,3.24-3.12,5.07-4,1.5-.76,1.8.54,1.8,1.8,0,3.6.06,7.21,0,10.8C230,145.18,229.58,148,233.9,148.28Z" style="fill:#010100"/><path d="M218.51,148.13a19.74,19.74,0,0,1-11.16.15c6.64-.25,4.44-4.88,4.7-8.23.06-.87,0-1.74,0-2.61,0-4.75,0-4.75-4.56-3.61,1.15-2.31,3.26-3.12,5.11-4,1.53-.74,1.78.6,1.77,1.84,0,3.6,0,7.2,0,10.8C214.44,145,213.19,148.49,218.51,148.13Z" style="fill:#010100"/><path d="M224.1,295.73c2.76-1.3,7.29-.93,6.23-5.36s-4.59-2.29-7.47-1.11c.89-2.54,1.67-3.12,4.24-3.21,2.2-.08,4.22.28,5.38,2.51,1.56,3-.31,4.9-2.2,6.87,2.49,1.3,4.17,3.06,3.43,6a5.16,5.16,0,0,1-4.79,4.07c-2.54.19-5.43.71-7.24-2.86,3.69.61,8.2,3.46,9.38-1.74C232.16,296,227,297.06,224.1,295.73Z" style="fill:#020201"/><path d="M207.59,290.62c.15-.84.11-1.19.25-1.29,1.8-1.23,3.62-3.74,5.62-3s.65,3.73.88,5.71,0,3.72,0,5.58c.06,2.92-1.3,6.57,3.91,7.11a28.26,28.26,0,0,1-10.58.54,5.68,5.68,0,0,1,.24-1c4.09,0,4.5-2.51,4.14-5.8a40.5,40.5,0,0,1,0-6.7c.15-2.49-.52-3.3-2.81-1.75A8.79,8.79,0,0,1,207.59,290.62Z" style="fill:#010100"/><path d="M223,211.49c1.16-3.65,3.92-3.68,6.7-3s4,3.54,3.22,6.61c-.74,2.73-2.66,4.74-4.46,6.79-.87,1-1.81,1.94-3.32,3.55,2.85,0,4.9,0,7,0,.73,0,1.6,0,1.68,1,.1,1.34-1,1.22-1.79,1.23q-3.73,0-7.47,0c-2.85,0-2.51-1.49-1.27-3.07s2.74-2.89,4-4.41a21.29,21.29,0,0,0,2.57-3.65c.9-1.7,1.37-3.57-.08-5.24s-3.29-1.37-5.11-.58C224.08,211,223.54,211.24,223,211.49Z" style="fill:#020301"/><path d="M207.3,212.66c1-2.17,2.63-2.6,3.87-3.5,2.16-1.57,3.34-1.29,3.23,1.7s-.05,6,0,8.94-1.3,6.58,3.92,7.12c-3.75,1.07-7.13.79-10.62.59a6.07,6.07,0,0,1,.25-1.07c4.06,0,4.6-2.45,4.15-5.77a37.2,37.2,0,0,1,0-4.84C212.05,211.12,212.05,211.12,207.3,212.66Z" style="fill:#010100"/><path d="M302.05,118.23c7.29-.1,8.27-.8,9.07-6.54-1-.61-1.89.12-2.79.33-3.3.77-6.1-.46-7-3.17a6.36,6.36,0,0,1,3.84-8.17c3.32-1.07,6.68.26,7.52,3.45,1.09,4.12,1.39,8.38-.78,12.3S304.45,121.3,302.05,118.23Z" style="fill:#020301"/><path d="M221.83,73.55a11.44,11.44,0,0,1,.92-6.56,5.82,5.82,0,0,1,5.81-3.28,5.24,5.24,0,0,1,5.29,3.9,18.94,18.94,0,0,1,.12,11c-.94,3.34-3.17,4.86-6.68,4.65s-4.84-2.65-5.41-5.62A21.55,21.55,0,0,1,221.83,73.55Z" style="fill:#010100"/><path d="M207.05,68.28c1.65-2.53,3.63-3.36,5.39-4.3,1.37-.74,2,.22,1.95,1.64,0,3.35-.11,6.71,0,10,.11,2.74-1.77,6.66,4.2,6.6-4,1.23-7.42,1-10.9.76a6.09,6.09,0,0,1,.22-1c4-.06,4.62-2.44,4.15-5.79a35.36,35.36,0,0,1,0-4.83C212.05,66.63,212.05,66.63,207.05,68.28Z" style="fill:#010100"/><path d="M134.65,116.79a31.17,31.17,0,0,1-10.72.68c0-.55.07-1,.08-1,4.53.08,4.44-2.95,4.2-6.14-.09-1.23,0-2.48,0-3.72,0-5.16,0-5.16-4.57-4.34,1.07-2.18,3.15-2.91,4.88-3.84s2,.44,2,1.89c0,3.35-.08,6.7,0,10C130.63,113.08,129,116.81,134.65,116.79Z" style="fill:#010100"/><path d="M316.12,322.21c-6.41-.16-7.83,1-8.51,6.9,1.1-.21,2.14-.42,3.19-.6,3.81-.66,6.41,1,6.86,4.29a6.33,6.33,0,0,1-5,7.17c-3.82.64-6.59-1.16-6.95-4.88a36.86,36.86,0,0,1,0-8.2,7.18,7.18,0,0,1,8.51-6.39C315.24,320.66,316.2,320.83,316.12,322.21Z" style="fill:#010200"/><path d="M213.92,373.44a25.16,25.16,0,0,0,5,.77c2.48-.08,4.31-1.36,4.35-4.11s-1.69-3.82-4.32-4c-1.33-.08-3.48.94-3.83-1-.46-2.62-.74-5.45.26-8.06.35-.9,8.16-1,8.6-.14s.3,1.55-.71,1.67a22,22,0,0,1-3.35.1c-1.81-.05-3.43-.25-3.33,2.54.07,2.24.38,3.49,3,3.29,2.85-.23,5.32.76,5.91,3.88.54,2.89-.18,5.63-3.21,6.81S216.2,376.73,213.92,373.44Z" style="fill:#010200"/><path d="M141.54,335.57c-4.26,0-1.66,3.92-3.76,4.95-1.17.56-1.5-.61-1.38-1.5.41-2.9-1.42-2.76-3.42-2.84-1.77-.08-4.18,1.06-5.16-.76s1.14-3.32,2-4.9c1.4-2.62,3-5.12,4.55-7.69a2.59,2.59,0,0,1,3.08-1.48c1.47.39,1.25,1.65,1.27,2.75a18.36,18.36,0,0,0,0,3C139.29,329.83,137.05,333.32,141.54,335.57Z" style="fill:#010100"/><path d="M328.46,190.26c-2-.25-4-.65-4-3.34,0-2.39,1.74-3.53,3.73-4,1.74-.39,4.48,2.5,4.29,4.3C332.25,189.63,330.47,190.08,328.46,190.26Z" style="fill:#7b9723"/><path d="M328.07,173.87c2.25.09,3.77.85,3.73,3a3.26,3.26,0,0,1-3.2,3.47,3.38,3.38,0,0,1-3.42-3.66C325.15,174.59,326.57,174,328.07,173.87Z" style="fill:#7b9723"/><path d="M303.47,106.43c-.07-2.47,1.09-4.36,3.78-4.29,3.52.1,3.71,3.11,3.91,5.67.22,2.85-2.39,2.6-4,2.72C304.73,110.73,303.41,109.14,303.47,106.43Z" style="fill:#7c9823"/><path d="M232.44,73.5c-.19,1.87-.05,3.72-.83,5.5a3.76,3.76,0,0,1-3.71,2.57,3.4,3.4,0,0,1-3.4-2.9,24.18,24.18,0,0,1-.09-10,3.7,3.7,0,0,1,3.93-3.28,3.64,3.64,0,0,1,3.49,3.3C232.14,70.3,232.24,71.91,232.44,73.5Z" style="fill:#7d9923"/><path d="M307.38,333.08c.08-3.19,2.62-3.06,4.31-3.12,2.38-.08,3.87,1.5,3.66,4.07s-1.3,4.42-4.07,4.28C307.9,338.13,308.06,335.13,307.38,333.08Z" style="fill:#7a9623"/><path d="M136.4,324.31c0,2.46,0,4.92,0,7.39,0,1.06.29,2.49-1.22,2.69a16.16,16.16,0,0,1-4.76-.07c-.79-.14-.26-1,0-1.52,1.7-2.94,3.44-5.86,5.16-8.78Z" style="fill:#728c20"/></g></g></svg>